# xmcd
#
# Track frame offsets:
# 150
# 12591
# 25435
# 39368
# 52726
# 66685
# 80831
# 94373
# 108593
# 122527
# 137229
# 150822
#
# Disc length: 2199 seconds
#
#
# Revision: 0
# Processed by: cddbd v1.5.2PL0 Copyright (c) Steve Scherf et al.
# Submitted via: FreeRIP 2.96 
#
DISCID=a008950c
DTITLE=Bruno e Gustavo - Procuro um grande amor
DYEAR=2007
DGENRE=Sertanejo
TTITLE0=Deixa o trem querer
TTITLE1=Grudadinho em voce
TTITLE2=Reza pra nois
TTITLE3=Vai embora solidao
TTITLE4=Tomara
TTITLE5=De ladinho fica dez
TTITLE6=Pick-up turbinada
TTITLE7=Saudade ta doendo
TTITLE8=De cair o queixo
TTITLE9=Quem ama
TTITLE10=Procuro um grande amor
TTITLE11=Sobrou solidao
EXTD=Criado por: Marcio Henrique
EXTT0=
EXTT1=
EXTT2=
EXTT3=
EXTT4=
EXTT5=
EXTT6=
EXTT7=
EXTT8=
EXTT9=
EXTT10=
EXTT11=
PLAYORDER=
